<?xml version="1.0" encoding="UTF-8"?>
<svg xmlns="http://www.w3.org/2000/svg" viewBox="0 0 500 500" width="500" height="500">
<path d="M263.93 181.19C267.88 181.19 271.84 181.18 275.8 181.18C279.74 180.93 283.61 183.2 287.08 184.84C302.2 192.01 309.97 211.88 302.1 226.97C300.3 230.42 298.2 233.79 294.75 235.79C293.99 232.56 293.23 229.33 292.47 226.1C289.01 227.03 285.97 229.54 282.4 230.6C280.41 231.19 278.25 230.67 276.48 231.85C277.26 237.06 278.04 242.28 278.82 247.49C279.05 251.45 279.27 255.4 279.49 259.36C279.33 265.3 279.16 271.23 279 277.17C277.16 286.54 273.2 295.59 267.59 303.41C265.19 306.77 260.71 309.96 259.21 313.81C257.4 318.43 257.5 324.47 256.43 329.35C253.1 344.51 245.76 368.79 231.05 376.83C228.69 378.01 226.33 379.19 223.97 380.37C223.9 380.65 223.82 380.94 223.74 381.23C219.83 383.59 212.95 386.46 208.29 385.62C209.17 382.88 210.06 380.14 210.94 377.4C209.03 377.91 207.24 379.62 205.61 380.73C201.39 383.59 194.66 387.03 189.5 386.84C187.85 386.46 176.21 386.56 175.34 387.29C173.67 386.73 172 386.17 170.32 385.62C173.3 380.38 178.65 375.85 182.62 371.43C194.28 358.45 214.96 337.5 219.84 321C223.8 307.63 224.46 294.22 223.8 280.14C223.48 273.24 221.21 265.73 222.3 258.9C222.22 254.64 222.14 250.38 222.07 246.12C221.83 239.14 223.77 232.11 225.06 225.34C223.54 221.53 218.33 217.86 215.4 214.97C208.3 207.98 200.95 201.02 194.22 193.69C192.07 191.35 185.64 183.82 182.84 183.14C180.68 181.14 178.53 179.13 176.37 177.13C175.46 175.8 174.54 174.47 173.63 173.15C172.42 171.82 171.21 170.5 170 169.18C170.89 167.63 169.5 166.74 170.87 165.98C170.31 165.26 169.74 164.54 169.18 163.82C168.43 164.8 168.41 164.77 167.81 163.75C167.34 164.19 166.88 164.63 166.41 165.07C162.01 161.54 157.97 157.08 154.42 152.74C154.62 152.2 154.82 151.67 155.02 151.13C154.14 148.85 152.88 149.64 152.74 151.56C149.52 148.15 143.99 145.57 142.55 140.87C144.07 140.93 144.43 140.75 145.32 139.5C143.6 138.2 143.26 136.93 140.94 137.21C140.91 137.89 140.89 138.56 140.87 139.24C138.35 137.84 135.36 134.73 133.47 132.51C131.94 130.72 131.57 127.98 129.5 126.71C128.9 127.17 128.3 127.63 127.7 128.08C126.09 135.12 127.17 143.81 129.01 150.7C129.92 154.08 131.4 156.52 132.88 159.6C133.01 159.88 133.37 160.53 133.15 160.86C132.89 161.25 131.84 161.33 131.4 161.42C135.23 162.03 137.59 168.48 139.92 171.75C143.27 176.47 147.54 181.41 152.09 185.11C153.79 186.49 155.89 187.32 157.47 188.86C158.09 189.46 158.33 190.45 159.01 190.97C160.6 192.18 162.34 192.47 163.5 194.29C161.33 196.07 159.56 193.23 157.31 193.21C157.31 194.61 160.38 197.15 161.87 197.49C163.07 196.73 164.27 195.97 165.46 195.21C165.9 196.23 165.92 196.32 166.68 195.43C167.69 196.66 169.69 198.35 171.28 197.8C174.41 199.65 177.54 201.5 180.68 203.35C181.16 206.29 181.64 209.23 182.12 212.17C178.54 210.35 174.96 208.53 171.39 206.71C170.42 204.71 168.13 203.46 165.98 203.21C162.4 200.05 157.37 198.28 153.3 195.78C146.24 191.44 139.11 187.13 132.07 182.74C128.05 180.23 117.51 170.17 114.61 169.18C112.47 174.16 117.57 184.91 119.88 189.46C127.55 204.54 150.99 221.36 167.54 224.31C168.82 225.96 171.8 226.8 173.82 226.77C178.64 227.82 184.16 231.19 189.13 230.71C191.23 233.58 193.32 236.46 195.41 239.34C194.29 240.75 192.07 239.44 190.63 239.01C186.23 237.67 181.76 235.81 177.19 235.53C175.5 233.42 173.64 232.84 170.95 232.94C161.02 228.89 150.13 226.96 139.95 223.54C136.12 222.26 132.29 221.06 128.48 219.76C126.07 218.94 124.05 217.43 121.46 217.12C119.22 220.31 127.93 230.02 130.54 232.26C141.45 241.67 162.1 250.17 176.74 247.96C178.2 249.38 181.69 249.98 183.17 248.43C189.42 248.14 195.67 247.84 201.91 247.54C203.56 249.82 205.22 252.1 206.87 254.38C201.38 254.75 195.9 255.12 190.41 255.49C189.73 254.96 189.04 254.42 188.36 253.88C186.61 254.04 184.86 254.19 183.11 254.35C175.94 254.72 168.78 255.1 161.62 255.48C161.23 254.57 160.85 253.65 160.46 252.74C159.26 252.59 158.05 252.44 156.85 252.29C156.8 254.52 157.82 254.76 159.73 255.48C156.41 255.41 153.09 255.33 149.78 255.26C149.78 254.42 149.79 253.58 149.79 252.74C150.48 251.98 151.17 251.22 151.86 250.46C151.39 250.25 150.93 250.04 150.46 249.83C150.22 249.92 149.98 250.02 149.75 250.11C134.12 245.73 119.37 233.69 114.06 218.09C112.79 214.38 110.41 209.73 111.19 205.77C116.56 207.42 121.34 210.57 126.69 212.35C128.84 213.06 130.3 214.48 132.65 213.7C129.79 209.12 123.91 206.03 120.54 201.59C112.36 190.82 106.29 176.9 108.19 163.01C108.51 160.96 108.82 158.9 109.13 156.85C109.89 157.05 110.65 157.25 111.41 157.45C118.36 163.91 125.71 169.73 132.91 175.85C132.52 175.64 132.13 175.42 131.74 175.21C131.2 175.94 130.67 176.67 130.14 177.4C131.7 177.33 133.26 177.26 134.82 177.19C135.24 177.6 135.66 178.01 136.07 178.42C136.15 178.75 136.23 179.08 136.3 179.41C137.37 180.05 138.43 180.69 139.5 181.32C140.6 180.48 140.63 179.91 139.95 178.68C139.38 178.63 138.81 178.59 138.24 178.54C137.71 176.46 135.67 174.84 134.49 173.05C131.44 168.39 127.76 163.51 126.34 158.04C126.5 156.68 126.54 156.03 125.57 155.02C124.65 152.05 123.73 149.09 122.81 146.12C120.64 141.02 122.27 125.84 123.94 120.51C124.6 118.41 124.31 116.14 125.8 114.5C127.53 116.02 128.64 118.13 130.1 119.9C135.06 125.95 140.12 132.16 145.73 137.59C163.82 155.08 181.43 172.93 199.48 190.71C205.52 196.66 211.51 202.72 217.46 208.8C220.2 211.59 223.25 215.73 226.72 217.58C229.77 211.19 232.83 204.79 235.88 198.4C229.92 195.73 220.42 188.98 224.43 181.05C226.91 181.49 228.97 183.48 231.25 184.51C233.74 185.63 238.16 186.15 240.87 185.96C248.14 185.44 257.65 180.85 263.93 181.19ZM376.72 148.86C376.49 149.01 376.26 149.16 376.03 149.32C375.49 151.37 374.96 153.42 374.43 155.48C374.12 155.78 373.82 156.09 373.52 156.39C373.55 157.05 373.59 157.71 373.63 158.37C372.18 162.47 369.95 166.43 367.61 170.1C365.57 173.28 362.41 176.09 361.19 179.68C364.68 177.76 368.28 175.22 371.57 172.71C374.62 170.39 377.39 166.93 380.78 165.16C382.94 164.95 387.75 160.44 388 158.42C388.88 157.45 389.76 156.49 390.64 155.53C392.7 157.27 392.24 166.98 391.82 169.86C390.74 171.43 389.38 180.58 389.65 182.73C387.95 191.65 381.13 200.73 374.71 206.91C372.38 209.15 369.5 210.97 367.46 213.47C369.46 214.89 371.29 213.03 373.31 212.35C377.44 210.96 385.46 205.68 389.23 206.16C389.43 209.92 387.39 214.75 386.04 218.18C379.82 234 366.43 245.2 350.26 250.1C349.53 250.22 348.8 250.34 348.07 250.46C348.81 251.04 349.54 252.3 350.49 252.49C352.05 252.81 356.71 252.24 357.53 251.28C359.13 251.48 360.73 251.68 362.33 251.88C362.03 254.78 358.42 257.45 356.46 259.44C349.33 266.68 339.01 273.18 328.51 273.02C327.3 272.81 326.1 272.59 324.89 272.37C326.15 271.61 327.4 270.85 328.65 270.09C327.45 268.92 320.83 269.32 320.11 271.46C320.8 272.12 321.49 271.21 322.48 271.74C324.17 272.66 324.67 274.88 326.63 275.26C327.36 275.67 328.08 276.07 328.81 276.48C326.55 280.12 315.97 283.41 311.83 284.6C306.8 284.76 301.76 284.92 296.73 285.08C292.98 284.71 289.2 283.42 285.84 281.72C286.07 280.51 286.3 279.29 286.53 278.08C287.9 278.23 289.27 278.39 290.64 278.54C290.41 278.05 290.18 277.56 289.95 277.07C297.16 277.84 305.37 282.41 312.34 277.4C311.39 275.13 308.34 274.58 306.16 273.83C300.4 271.83 292.92 270.01 287.6 267.39C288.37 265.2 289.13 263 289.89 260.8C293.87 262.01 297.86 263.22 301.84 264.43C303.4 265.13 304.97 265.82 306.53 266.52C307.24 267.42 313.06 267.53 314.97 267.85C317.43 268.27 320.26 269.66 322.6 269.5C325.16 269.32 327.62 268 330.08 267.35C331.79 266.89 333.61 267.06 335.33 266.58C336.22 266.33 336.86 265.52 337.69 265.34C340.31 264.76 342.05 266.62 344.52 266.59C344.37 266.11 344.22 265.63 344.06 265.15C346.72 264.7 346.68 263.72 346.36 261.42C347.87 260.05 349.39 258.68 350.9 257.31C349.08 256.1 347.25 254.9 345.43 253.69C342.2 254.62 341.92 253.68 343.7 255.48C340.99 255.67 337.24 256.43 335.11 254.57C336.12 253.81 337.13 253.04 338.15 252.28C336.31 252.7 334.48 253.11 332.65 253.52C332.8 253.89 332.95 254.26 333.11 254.63C327.69 254.67 322.28 254.71 316.86 254.76C314.54 254.9 312.6 254.51 310.59 255.84C304.77 255.39 298.95 254.93 293.13 254.47C294.21 252.75 295.29 251.03 296.37 249.32C299.86 249.39 303.36 249.47 306.85 249.54C304.45 250.18 301.38 250.32 299.32 248.86C299.24 248.49 299.16 248.13 299.09 247.76C305.03 247.85 310.97 247.95 316.91 248.04C316.98 248.3 317.05 248.55 317.12 248.81C319.25 249.42 322.02 249.62 323.39 247.62C327.16 249.66 334.59 247.41 338.58 246.7C351.11 244.48 363.88 239.06 372.47 229.3C375.07 226.33 379.37 221.58 379.22 217.47C375.27 216.62 369.82 220.52 365.98 221.66C354.29 225.13 340.16 228.32 329.27 233.24C326.77 232.18 324.71 233.77 322.89 235.26C317.47 236.74 312.04 238.22 306.62 239.69C306.27 239.25 305.92 238.8 305.57 238.36C307.38 235.81 309.19 233.27 311 230.73C316.22 229.34 321.44 227.96 326.66 226.57C328.6 225.93 330.54 225.29 332.48 224.66C332.61 224.6 332.75 224.55 332.88 224.49C351.18 217.1 370.92 208.28 380.19 189.54C383.1 183.65 386.84 175.98 385.62 169.21C383.37 169.65 373.54 178.58 370.79 180.61C363.15 186.25 354.89 191.07 346.71 195.84C342.68 198.19 337.24 199.97 333.84 203.17C331.81 203.75 329.61 204.72 328.67 206.74C325.43 208.56 322.19 210.37 318.95 212.18C318.68 212.08 318.4 211.97 318.13 211.87C318.52 209.15 318.91 206.43 319.3 203.71C322.5 201.8 325.7 199.89 328.9 197.99C330.53 198.03 332.32 196.66 333.36 195.43C334.88 194.41 336.32 194.85 338.13 194.82C337.97 194.43 337.34 193.91 337.47 193.47C337.57 193.12 338.32 192.93 338.6 192.73C340 191.71 341.06 190.29 342.41 189.23C346.12 186.34 350.36 183.64 353.25 179.99C355.47 177.17 357.87 172.63 361.42 171.52C360.09 170.09 362.33 169.16 363.01 167.8C364.96 163.86 367.31 160.06 369.17 156.17C372.17 149.9 370.82 141.05 373.99 135.39C373.16 132.5 372.33 129.6 371.51 126.71C366.6 131.58 362.07 137.23 357.42 142.56C353.75 146.76 349.16 150.18 345.28 154.2C343.46 156.09 337.23 163.47 334.8 163.78C334.4 163.84 333.61 163.3 333.11 163.2C333.16 163.87 333.94 164.48 333.86 165.07C333.73 166.13 327.64 171.78 326.3 172.62C323.41 173.96 319.37 177.78 316.98 180.22C315.6 181.63 315.23 183.46 313.7 184.7C313.71 185.08 313.72 185.45 313.74 185.82C311.67 187.81 309.6 189.8 307.53 191.8C306.38 190.34 305.22 188.89 304.07 187.44C308.4 182.11 314.11 177.84 318.77 172.87C330.12 160.76 342.54 149.37 354.29 137.62C359.06 132.85 363.55 127.65 367.87 122.45C369.88 120.03 371.93 116.1 374.66 114.57C378.32 123.54 379.6 139.52 376.72 148.86ZM144.52 183.55C143.72 184.98 143.77 185.43 142.28 184.7C143.61 186.92 145.49 188.51 148.17 188.35C149.7 189.28 151.22 190.21 152.74 191.14C152.33 189.75 151.91 188.37 151.5 186.99C149.17 185.84 146.85 184.69 144.52 183.55ZM256.2 189.86C244.21 192.3 234.69 211.91 232.33 222.6C234.32 226.45 238.21 229.5 240.88 232.92C246.43 240.04 251.7 248.37 254.76 256.88C257.66 264.99 259.94 273.33 260.75 281.96C261.33 288.05 260.04 294.86 261.42 300.77C263.96 298.53 265.42 295.35 267.12 292.49C275.57 278.24 275.07 261.51 272.33 245.78C271.59 241.54 271.45 235.55 269.61 231.74C259.67 227.43 252.01 225.9 249.37 213.77C248.94 204.33 254.35 193.69 265.07 193.72C268.61 193.72 272.78 195.35 271.97 199.66C271.23 203.62 266.29 202.58 264.61 200.13C259.24 198.9 255.27 204.94 254.97 209.86C254.55 216.75 263.29 226.37 270.36 224.89C271.15 223.22 270.88 221.3 271.38 219.5C272.81 214.43 274.26 209.41 276.55 204.65C278.39 200.82 284.61 194.3 284.94 190.64C278.14 184.1 263.6 185.16 256.2 189.86ZM241.32 187.32C241.02 187.97 240.72 188.62 240.41 189.27C239.96 188.88 239.5 188.48 239.04 188.09C238.99 189.85 238.4 189.92 237.48 189.73C237.48 190.79 237.48 191.86 237.48 192.92C237.24 192.31 237 191.7 236.75 191.1C234.78 192.15 237.32 193.35 238.15 194.29C237.69 194.84 237.22 195.39 236.76 195.94C238.53 195.71 239.22 194.54 240.41 193.26C241.3 194.51 242.14 194.45 243.61 194.46C244.26 193.64 244.91 192.82 245.56 192.01C244.25 190.32 243.54 192.58 243.61 189.92C242.85 190.2 242.09 190.47 241.32 190.74C241.62 189.36 242.75 188.63 241.32 187.32ZM296.88 213.7C296.69 216.36 296.5 219.03 296.31 221.69C296.86 222.07 297.4 222.45 297.95 222.83C298.2 222.02 298.45 221.22 298.7 220.41C299.11 218.62 299.53 216.82 299.94 215.03C300.19 214.74 300.44 214.45 300.68 214.16C300.23 210.81 299.77 207.46 299.32 204.11C298.79 203.97 298.26 203.83 297.73 203.7C295.37 200.65 293 197.6 290.64 194.55C289.71 195.53 288.78 196.51 287.85 197.49C288.57 199.19 290.3 200.04 291.48 201.43C294.13 204.55 296.91 209.54 296.88 213.7ZM291.1 205.49C290.18 206.6 289.27 207.71 288.36 208.82C291.38 209.08 289.17 217.47 290.64 220.2C293.11 220.61 293.8 222.89 295.22 223.06C295.22 222.13 295.22 221.2 295.22 220.27C294.03 219.12 292.72 217.28 291.55 218.93C291.93 215.28 292.3 211.64 292.68 207.99C292.15 207.16 291.62 206.32 291.1 205.49ZM286.99 214.85C286.97 213.91 286.27 213.24 286.07 212.34C285.59 210.09 284.51 203.2 280.67 207.08C282.32 211.5 284.84 218.29 279.46 220.87C279.46 221.68 279.46 222.49 279.46 223.3C279.79 224.13 280.12 224.97 280.46 225.8C281.77 223.76 284.88 219.5 287.48 219.41C287.71 217.63 289.27 214.62 288.36 213.42C287.9 213.9 287.44 214.37 286.99 214.85ZM278.77 211.66C275.59 212.87 273.68 216.16 274.2 219.56C275.61 218.41 275.61 218.43 277.4 219.05C278.26 216.39 278.93 214.51 278.77 211.66ZM224.58 336.07C223.79 336.76 218.72 339.19 218.51 339.08C218.14 338.9 218.09 337.41 218.04 337.04C217.4 338.98 215.99 339.36 215.05 340.96C210.93 347.94 204.91 353.55 200.07 360.13C198.01 362.93 194.75 367.67 191.1 368.12C191.35 373.86 182.09 377.39 181.6 381.96C185.95 383.21 192.36 380.85 196.57 379.42C198.34 378.82 200.59 379.65 200.68 377.38C201.34 377.54 201.99 377.7 202.64 377.85C202.48 377.4 202.32 376.94 202.17 376.48C202.43 376.5 203.56 376.72 203.76 376.63C203.97 376.53 203.94 375.48 204.17 375.17C205.3 373.65 207.18 372.18 208.57 370.9C209.42 370.12 210.62 369.99 211.46 369.22C215.58 365.45 220.49 356.69 222.88 351.87C223.44 350.75 227.01 342.84 227.41 342.71C227.87 342.54 228.42 342.99 228.75 343.15C228.64 341.93 228.52 340.72 228.4 339.5C229.5 338.02 230 335.79 229.45 333.95C228.61 334.16 227.78 334.36 226.94 334.57C226.94 334.46 226.94 334.35 226.94 334.25C226.95 334.09 226.96 333.94 226.97 333.78C228.18 332.68 229.89 332.02 230.82 330.59C232.05 328.73 232.05 325.92 233.61 324.27C234.42 323.42 235.63 323.21 236.59 322.66C240.88 320.2 250.43 314.38 252.87 310.18C255.24 306.08 254.66 296.33 254.66 291.55C254.65 274.6 249.47 259.84 241.25 245.32C238.76 240.92 234.91 234.05 230.37 231.55C228.97 235.08 229.26 238.97 228.77 242.68C226.64 258.8 229.89 275.37 230.09 291.55C230.23 302.51 229.02 313.36 225.34 323.7C223.71 328.27 220.87 332.4 219.41 336.99C221.13 336.68 222.86 336.38 224.58 336.07ZM144.29 251.64C145.66 251.7 147.03 251.76 148.4 251.83C148.27 251.86 147.15 252.15 147.17 252.27C147.21 252.54 149.12 252.69 149.42 252.74C148.95 253.5 148.48 254.26 148 255.02C148.59 255.1 149.19 255.18 149.78 255.26C149.33 256.55 148.88 257.84 148.43 259.13C150.81 260.1 153.97 260.18 155.23 262.79C153.39 263.31 153.31 262.41 151.95 261.42C150.98 261.49 150.14 261.81 150 262.83C151 263.44 152.43 263.07 153.5 264.07C155.48 265.9 155.37 266.69 158.15 265.53C157.04 265.06 156.05 264.37 156.85 263.45C157.88 263.86 157.78 264.46 158.64 265C159.57 265.58 161.2 265.21 162.24 265.48C165.97 266.42 170.41 267.3 173.54 269.63C172.43 269.94 171.31 270.24 170.2 270.55C171.49 270.92 173.32 272.13 174.68 271.98C176.54 271.77 175.44 270 174.66 269.58C176.18 269.44 177.7 269.3 179.22 269.16C180.28 270.3 180.52 271.99 182.42 271.08C181.96 270.43 181.51 269.79 181.05 269.14C184.46 266.68 190.25 267.43 194.18 267.35C194.45 266.98 194.71 266.61 194.98 266.24C196.04 265.65 197.1 265.06 198.17 264.47C201.63 263.63 205.1 262.78 208.56 261.94C208.52 262.29 208.49 262.65 208.45 263.01C209.28 263.09 210.12 263.17 210.96 263.24C210.96 264.31 210.96 265.37 210.96 266.44C211.91 266.38 211.8 266.68 211.87 267.58C203.88 270.54 195.89 273.5 187.9 276.46C188.05 278.52 191.27 278.91 192.91 279.26C198.93 280.55 204.27 277.87 209.94 277.43C210.05 277.8 210.16 278.17 210.27 278.54C211.34 278.23 212.4 277.93 213.47 277.63C213.39 278.77 213.32 279.91 213.24 281.05C213.37 281.33 213.5 281.61 213.64 281.88C202.28 288.65 188.12 285.84 177.07 280.24C175.15 279.27 172.91 278.28 171.46 276.67C172.38 275.85 173.31 275.02 174.23 274.2C170.97 272.2 166.43 272.83 162.88 271.58C154.96 268.79 141 260.46 137.76 252.28C139.32 251.05 142.35 251.23 144.29 251.64ZM251.6 320.78C248.7 322 240.08 327.09 238.43 329.54C236.6 332.26 236.18 336.29 234.97 339.34C232.49 345.56 229.89 351.82 227.12 357.92C225.08 362.4 219.76 371.21 219.86 375.82C224.93 375.67 230.52 369.98 233.8 366.48C243.96 355.65 250.25 335.38 251.6 320.78ZM226.97 333.78C226.96 333.94 226.95 334.09 226.94 334.25C226.65 334.24 226.36 334.23 226.07 334.23C226.37 334.08 226.67 333.93 226.97 333.78Z" fill="#40586d" fill-rule="evenodd" stroke="#40586d" stroke-width="0.25" stroke-linejoin="round"/>
<path d="M165.98 203.21C166.5 210.24 167.02 217.28 167.54 224.31C150.99 221.36 127.55 204.54 119.88 189.46C117.57 184.91 112.47 174.16 114.61 169.18C117.51 170.17 128.05 180.23 132.07 182.74C139.11 187.13 146.24 191.44 153.3 195.78C157.37 198.28 162.4 200.05 165.98 203.21ZM332.88 224.49C332.77 224.45 332.67 224.41 332.56 224.36C331.48 218.05 335.75 209.79 333.84 203.17C337.24 199.97 342.68 198.19 346.71 195.84C354.89 191.07 363.15 186.25 370.79 180.61C373.54 178.58 383.37 169.65 385.62 169.21C386.84 175.98 383.1 183.65 380.19 189.54C370.92 208.28 351.18 217.1 332.88 224.49ZM176.37 177.13C178.53 179.13 180.68 181.14 182.84 183.14C180.39 189.41 181.45 196.82 180.68 203.35C177.54 201.5 174.41 199.65 171.28 197.8C171.65 191 173.45 183.26 176.37 177.13ZM323.75 176.93C326.38 179.79 328.47 193.78 328.9 197.99C325.7 199.89 322.5 201.8 319.3 203.71C318.88 196.96 319.56 189.55 317.23 183.09C319.4 181.04 321.58 178.98 323.75 176.93ZM256.2 189.86C255.49 191.37 253.99 192.45 252.96 193.83C250.05 197.71 248.11 202.12 247.74 206.98C247.58 209.03 247.52 212.6 249.37 213.77C252.01 225.9 259.67 227.43 269.61 231.74C271.45 235.55 271.59 241.54 272.33 245.78C275.07 261.51 275.57 278.24 267.12 292.49C265.42 295.35 263.96 298.53 261.42 300.77C260.04 294.86 261.33 288.05 260.75 281.96C259.94 273.33 257.66 264.99 254.76 256.88C251.7 248.37 246.43 240.04 240.88 232.92C238.21 229.5 234.32 226.45 232.33 222.6C234.69 211.91 244.21 192.3 256.2 189.86ZM171.39 206.71C174.96 208.53 178.54 210.35 182.12 212.17C183.14 215.42 183.66 218.88 185.07 222.02C186.34 224.85 188.35 227.73 189.13 230.71C184.16 231.19 178.64 227.82 173.82 226.77C172.92 220.07 170.51 213.66 171.39 206.71ZM328.67 206.74C329.66 213.68 326.69 219.82 326.66 226.57C321.44 227.96 316.22 229.34 311 230.73C311.94 227.62 314.17 224.9 315.12 221.78C316.08 218.6 316.86 214.9 318.13 211.87C318.4 211.97 318.68 212.08 318.95 212.18C322.19 210.37 325.43 208.56 328.67 206.74ZM226.97 333.78C226.67 333.93 226.37 334.08 226.07 334.23C225.59 334.46 225.12 334.7 224.65 334.93C224.95 335.08 225.26 335.24 225.57 335.39C225.24 335.62 224.91 335.84 224.58 336.07C222.86 336.38 221.13 336.68 219.41 336.99C220.87 332.4 223.71 328.27 225.34 323.7C229.02 313.36 230.23 302.51 230.09 291.55C229.89 275.37 226.64 258.8 228.77 242.68C229.26 238.97 228.97 235.08 230.37 231.55C234.91 234.05 238.76 240.92 241.25 245.32C249.47 259.84 254.65 274.6 254.66 291.55C254.66 296.33 255.24 306.08 252.87 310.18C250.43 314.38 240.88 320.2 236.59 322.66C235.63 323.21 234.42 323.42 233.61 324.27C232.05 325.92 232.05 328.73 230.82 330.59C229.89 332.02 228.18 332.68 226.97 333.78ZM251.6 320.78C250.25 335.38 243.96 355.65 233.8 366.48C230.52 369.98 224.93 375.67 219.86 375.82C219.76 371.21 225.08 362.4 227.12 357.92C229.89 351.82 232.49 345.56 234.97 339.34C236.18 336.29 236.6 332.26 238.43 329.54C240.08 327.09 248.7 322 251.6 320.78Z" fill="#f0bf3d" fill-rule="evenodd" stroke="#f0bf3d" stroke-width="0.25" stroke-linejoin="round"/>
<path d="M173.63 173.15C171.17 173.45 171.01 176.29 170.35 178.33C168.52 183.99 167.18 189.5 166.68 195.43C165.92 196.32 165.9 196.23 165.46 195.21C164.27 195.97 163.07 196.73 161.87 197.49C160.38 197.15 157.31 194.61 157.31 193.21C159.56 193.23 161.33 196.07 163.5 194.29C162.34 192.47 160.6 192.18 159.01 190.97C158.33 190.45 158.09 189.46 157.47 188.86C155.89 187.32 153.79 186.49 152.09 185.11C147.54 181.41 143.27 176.47 139.92 171.75C137.59 168.48 135.23 162.03 131.4 161.42C131.84 161.33 132.89 161.25 133.15 160.86C133.37 160.53 133.01 159.88 132.88 159.6C131.4 156.52 129.92 154.08 129.01 150.7C127.17 143.81 126.09 135.12 127.7 128.08C128.3 127.63 128.9 127.17 129.5 126.71C131.57 127.98 131.94 130.72 133.47 132.51C135.36 134.73 138.35 137.84 140.87 139.24C140.89 138.56 140.91 137.89 140.94 137.21C143.26 136.93 143.6 138.2 145.32 139.5C144.43 140.75 144.07 140.93 142.55 140.87C143.99 145.57 149.52 148.15 152.74 151.56C152.88 149.64 154.14 148.85 155.02 151.13C154.82 151.67 154.62 152.2 154.42 152.74C157.97 157.08 162.01 161.54 166.41 165.07C166.88 164.63 167.34 164.19 167.81 163.75C168.41 164.77 168.43 164.8 169.18 163.82C169.74 164.54 170.31 165.26 170.87 165.98C169.5 166.74 170.89 167.63 170 169.18C171.21 170.5 172.42 171.82 173.63 173.15ZM333.36 195.43C333.08 189.48 331.69 183.91 329.76 178.29C329.05 176.21 328.96 173.35 326.36 173.14C326.34 172.96 326.32 172.79 326.3 172.62C327.64 171.78 333.73 166.13 333.86 165.07C333.94 164.48 333.16 163.87 333.11 163.2C333.61 163.3 334.4 163.84 334.8 163.78C337.23 163.47 343.46 156.09 345.28 154.2C349.16 150.18 353.75 146.76 357.42 142.56C362.07 137.23 366.6 131.58 371.51 126.71C372.33 129.6 373.16 132.5 373.99 135.39C370.82 141.05 372.17 149.9 369.17 156.17C367.31 160.06 364.96 163.86 363.01 167.8C362.33 169.16 360.09 170.09 361.42 171.52C357.87 172.63 355.47 177.17 353.25 179.99C350.36 183.64 346.12 186.34 342.41 189.23C341.06 190.29 340 191.71 338.6 192.73C338.32 192.93 337.57 193.12 337.47 193.47C337.34 193.91 337.97 194.43 338.13 194.82C336.32 194.85 334.88 194.41 333.36 195.43ZM136.07 178.42C136.76 178.61 137.44 178.8 138.13 179C138.17 178.84 138.21 178.69 138.24 178.54C138.81 178.59 139.38 178.63 139.95 178.68C140.63 179.91 140.6 180.48 139.5 181.32C138.43 180.69 137.37 180.05 136.3 179.41C136.23 179.08 136.15 178.75 136.07 178.42ZM275.8 181.18C271.84 181.18 267.88 181.19 263.93 181.19C266.66 179.89 273.02 180.02 275.8 181.18ZM144.52 183.55C146.85 184.69 149.17 185.84 151.5 186.99C151.91 188.37 152.33 189.75 152.74 191.14C151.22 190.21 149.7 189.28 148.17 188.35C145.49 188.51 143.61 186.92 142.28 184.7C143.77 185.43 143.72 184.98 144.52 183.55ZM241.32 187.32C242.75 188.63 241.62 189.36 241.32 190.74C242.09 190.47 242.85 190.2 243.61 189.92C243.54 192.58 244.25 190.32 245.56 192.01C244.91 192.82 244.26 193.64 243.61 194.46C242.14 194.45 241.3 194.51 240.41 193.26C239.22 194.54 238.53 195.71 236.76 195.94C237.22 195.39 237.69 194.84 238.15 194.29C237.32 193.35 234.78 192.15 236.75 191.1C237 191.7 237.24 192.31 237.48 192.92C237.48 191.86 237.48 190.79 237.48 189.73C238.4 189.92 238.99 189.85 239.04 188.09C239.5 188.48 239.96 188.88 240.41 189.27C240.72 188.62 241.02 187.97 241.32 187.32ZM291.1 205.49C291.62 206.32 292.15 207.16 292.68 207.99C292.3 211.64 291.93 215.28 291.55 218.93C292.72 217.28 294.03 219.12 295.22 220.27C295.22 221.2 295.22 222.13 295.22 223.06C293.8 222.89 293.11 220.61 290.64 220.2C289.17 217.47 291.38 209.08 288.36 208.82C289.27 207.71 290.18 206.6 291.1 205.49ZM286.99 214.85C287.44 214.37 287.9 213.9 288.36 213.42C289.27 214.62 287.71 217.63 287.48 219.41C284.88 219.5 281.77 223.76 280.46 225.8C280.12 224.97 279.79 224.13 279.46 223.3C279.46 222.49 279.46 221.68 279.46 220.87C284.84 218.29 282.32 211.5 280.67 207.08C284.51 203.2 285.59 210.09 286.07 212.34C286.27 213.24 286.97 213.91 286.99 214.85ZM278.77 211.66C278.93 214.51 278.26 216.39 277.4 219.05C275.61 218.43 275.61 218.41 274.2 219.56C273.68 216.16 275.59 212.87 278.77 211.66ZM296.88 213.7C297 216.21 297.13 218.72 297.26 221.23C297.74 220.96 298.22 220.69 298.7 220.41C298.45 221.22 298.2 222.02 297.95 222.83C297.4 222.45 296.86 222.07 296.31 221.69C296.5 219.03 296.69 216.36 296.88 213.7ZM222.07 246.12C222.14 250.38 222.22 254.64 222.3 258.9C222.22 254.64 222.14 250.38 222.07 246.12ZM149.78 255.26C149.19 255.18 148.59 255.1 148 255.02C148.48 254.26 148.95 253.5 149.42 252.74C149.12 252.69 147.21 252.54 147.17 252.27C147.15 252.15 148.27 251.86 148.4 251.83C147.03 251.76 145.66 251.7 144.29 251.64C144.37 251.49 144.44 251.34 144.52 251.18C146.24 251.19 148.79 251.76 149.75 250.11C149.98 250.02 150.22 249.92 150.46 249.83C150.93 250.04 151.39 250.25 151.86 250.46C151.17 251.22 150.48 251.98 149.79 252.74C149.79 253.58 149.78 254.42 149.78 255.26ZM350.26 250.1C351.4 252 355.5 251.08 357.53 251.28C356.71 252.24 352.05 252.81 350.49 252.49C349.54 252.3 348.81 251.04 348.07 250.46C348.8 250.34 349.53 250.22 350.26 250.1ZM183.11 254.35C183.11 254.51 183.11 254.67 183.11 254.83C182.87 255.2 182.64 255.57 182.4 255.94C184.41 259.66 189.44 264.52 193.15 266.44C193.76 266.37 194.37 266.31 194.98 266.24C194.71 266.61 194.45 266.98 194.18 267.35C190.25 267.43 184.46 266.68 181.05 269.14C181.51 269.79 181.96 270.43 182.42 271.08C180.52 271.99 180.28 270.3 179.22 269.16C177.7 269.3 176.18 269.44 174.66 269.58C175.44 270 176.54 271.77 174.68 271.98C173.32 272.13 171.49 270.92 170.2 270.55C171.31 270.24 172.43 269.94 173.54 269.63C170.41 267.3 165.97 266.42 162.24 265.48C161.2 265.21 159.57 265.58 158.64 265C157.78 264.46 157.88 263.86 156.85 263.45C156.05 264.37 157.04 265.06 158.15 265.53C155.37 266.69 155.48 265.9 153.5 264.07C152.43 263.07 151 263.44 150 262.83C150.14 261.81 150.98 261.49 151.95 261.42C153.31 262.41 153.39 263.31 155.23 262.79C153.97 260.18 150.81 260.1 148.43 259.13C148.88 257.84 149.33 256.55 149.78 255.26C153.09 255.33 156.41 255.41 159.73 255.48C157.82 254.76 156.8 254.52 156.85 252.29C158.05 252.44 159.26 252.59 160.46 252.74C160.85 253.65 161.23 254.57 161.62 255.48C168.78 255.1 175.94 254.72 183.11 254.35ZM306.53 266.52C310.28 264.73 315.88 259.64 317.58 255.71C317.34 255.39 317.1 255.07 316.86 254.76C322.28 254.71 327.69 254.67 333.11 254.63C332.95 254.26 332.8 253.89 332.65 253.52C334.48 253.11 336.31 252.7 338.15 252.28C337.13 253.04 336.12 253.81 335.11 254.57C337.24 256.43 340.99 255.67 343.7 255.48C341.92 253.68 342.2 254.62 345.43 253.69C347.25 254.9 349.08 256.1 350.9 257.31C349.39 258.68 347.87 260.05 346.36 261.42C346.68 263.72 346.72 264.7 344.06 265.15C344.22 265.63 344.37 266.11 344.52 266.59C342.05 266.62 340.31 264.76 337.69 265.34C336.86 265.52 336.22 266.33 335.33 266.58C333.61 267.06 331.79 266.89 330.08 267.35C327.62 268 325.16 269.32 322.6 269.5C320.26 269.66 317.43 268.27 314.97 267.85C313.06 267.53 307.24 267.42 306.53 266.52ZM279.49 259.36C279.66 259.34 279.82 259.31 279.98 259.28C281.27 262.02 280.5 274.46 279 277.17C279.16 271.23 279.33 265.3 279.49 259.36ZM328.51 273.02C327.83 273.26 327.16 273.5 326.48 273.74C326.33 274.05 326.18 274.35 326.03 274.66C326.23 274.86 326.43 275.06 326.63 275.26C324.67 274.88 324.17 272.66 322.48 271.74C321.49 271.21 320.8 272.12 320.11 271.46C320.83 269.32 327.45 268.92 328.65 270.09C327.4 270.85 326.15 271.61 324.89 272.37C326.1 272.59 327.3 272.81 328.51 273.02ZM224.58 336.07C224.91 335.84 225.24 335.62 225.57 335.39C225.26 335.24 224.95 335.08 224.65 334.93C225.12 334.7 225.59 334.46 226.07 334.23C226.36 334.34 226.65 334.46 226.94 334.57C227.78 334.36 228.61 334.16 229.45 333.95C230 335.79 229.5 338.02 228.4 339.5C228.52 340.72 228.64 341.93 228.75 343.15C228.42 342.99 227.87 342.54 227.41 342.71C227.01 342.84 223.44 350.75 222.88 351.87C220.49 356.69 215.58 365.45 211.46 369.22C210.62 369.99 209.42 370.12 208.57 370.9C207.18 372.18 205.3 373.65 204.17 375.17C203.94 375.48 203.97 376.53 203.76 376.63C203.56 376.72 202.43 376.5 202.17 376.48C202.32 376.94 202.48 377.4 202.64 377.85C201.99 377.7 201.34 377.54 200.68 377.38C200.59 379.65 198.34 378.82 196.57 379.42C192.36 380.85 185.95 383.21 181.6 381.96C182.09 377.39 191.35 373.86 191.1 368.12C194.75 367.67 198.01 362.93 200.07 360.13C204.91 353.55 210.93 347.94 215.05 340.96C215.99 339.36 217.4 338.98 218.04 337.04C218.09 337.41 218.14 338.9 218.51 339.08C218.72 339.19 223.79 336.76 224.58 336.07ZM189.5 386.84C186.4 388.71 178.69 388.37 175.34 387.29C176.21 386.56 187.85 386.46 189.5 386.84Z" fill="#477eb3" fill-rule="evenodd" stroke="#477eb3" stroke-width="0.25" stroke-linejoin="round"/>
<path d="M170.95 232.94C170.6 238.3 175.78 242.95 176.74 247.96C162.1 250.17 141.45 241.67 130.54 232.26C127.93 230.02 119.22 220.31 121.46 217.12C124.05 217.43 126.07 218.94 128.48 219.76C132.29 221.06 136.12 222.26 139.95 223.54C150.13 226.96 161.02 228.89 170.95 232.94ZM323.39 247.62C325.35 242.83 327.31 238.03 329.27 233.24C340.16 228.32 354.29 225.13 365.98 221.66C369.82 220.52 375.27 216.62 379.22 217.47C379.37 221.58 375.07 226.33 372.47 229.3C363.88 239.06 351.11 244.48 338.58 246.7C334.59 247.41 327.16 249.66 323.39 247.62ZM195.41 239.34C197.58 242.07 199.75 244.81 201.91 247.54C195.67 247.84 189.42 248.14 183.17 248.43C181.75 244.16 177.39 240.13 177.19 235.53C181.76 235.81 186.23 237.67 190.63 239.01C192.07 239.44 194.29 240.75 195.41 239.34ZM322.89 235.26C322.88 239.47 318.96 244.45 316.91 248.04C310.97 247.95 305.03 247.85 299.09 247.76C298.91 247.68 298.74 247.6 298.56 247.52C300.9 244.47 303.23 241.41 305.57 238.36C305.92 238.8 306.27 239.25 306.62 239.69C312.04 238.22 317.47 236.74 322.89 235.26ZM206.87 254.38C207.96 256.37 209.05 258.36 210.14 260.36C210.03 260.7 209.92 261.05 209.82 261.39C209.4 261.57 208.98 261.75 208.56 261.94C205.1 262.78 201.63 263.63 198.17 264.47C195.33 261.7 192.49 258.93 189.65 256.16C189.83 255.89 190 255.61 190.18 255.34C190.26 255.39 190.33 255.44 190.41 255.49C195.9 255.12 201.38 254.75 206.87 254.38ZM293.13 254.47C298.95 254.93 304.77 255.39 310.59 255.84C307.68 258.71 304.76 261.57 301.84 264.43C297.86 263.22 293.87 262.01 289.89 260.8C290.97 258.69 292.05 256.58 293.13 254.47ZM211.87 267.58C212.14 267.58 212.41 267.58 212.68 267.58C213.05 270.3 213.42 273.03 213.79 275.75C212.51 276.31 211.22 276.87 209.94 277.43C204.27 277.87 198.93 280.55 192.91 279.26C191.27 278.91 188.05 278.52 187.9 276.46C195.89 273.5 203.88 270.54 211.87 267.58ZM287.6 267.39C292.92 270.01 300.4 271.83 306.16 273.83C308.34 274.58 311.39 275.13 312.34 277.4C305.37 282.41 297.16 277.84 289.95 277.07C288.73 276.66 287.51 276.24 286.29 275.82C286.73 273.01 287.17 270.2 287.6 267.39Z" fill="#c9534a" fill-rule="evenodd" stroke="#c9534a" stroke-width="0.25" stroke-linejoin="round"/>
<path d="M122.81 146.12C123.73 149.09 124.65 152.05 125.57 155.02C126.54 156.03 126.5 156.68 126.34 158.04C125.16 154.07 123.99 150.09 122.81 146.12ZM376.72 148.86C375.69 152.03 374.66 155.2 373.63 158.37C373.59 157.71 373.55 157.05 373.52 156.39C373.82 156.09 374.12 155.78 374.43 155.48C374.96 153.42 375.49 151.37 376.03 149.32C376.26 149.16 376.49 149.01 376.72 148.86ZM111.41 157.45C110.65 157.25 109.89 157.05 109.13 156.85C108.82 158.9 108.51 160.96 108.19 163.01C107.99 160.57 107.83 157.56 109.36 155.54C110.04 156.18 110.72 156.81 111.41 157.45ZM388 158.42C387.75 160.44 382.94 164.95 380.78 165.16C383.19 162.91 385.59 160.66 388 158.42ZM391.82 169.86C392.12 174.21 390.81 178.6 389.65 182.73C389.38 180.58 390.74 171.43 391.82 169.86ZM326.3 172.62C326.32 172.79 326.34 172.96 326.36 173.14C325.49 174.4 324.62 175.66 323.75 176.93C321.58 178.98 319.4 181.04 317.23 183.09C316.06 184 314.9 184.91 313.74 185.82C313.72 185.45 313.71 185.08 313.7 184.7C315.23 183.46 315.6 181.63 316.98 180.22C319.37 177.78 323.41 173.96 326.3 172.62ZM132.91 175.85C133.55 176.3 134.18 176.75 134.82 177.19C133.26 177.26 131.7 177.33 130.14 177.4C130.67 176.67 131.2 175.94 131.74 175.21C132.13 175.42 132.52 175.64 132.91 175.85ZM297.73 203.7C298.26 203.83 298.79 203.97 299.32 204.11C299.77 207.46 300.23 210.81 300.68 214.16C300.44 214.45 300.19 214.74 299.94 215.03C299.2 211.25 298.47 207.47 297.73 203.7ZM332.56 224.36C332.67 224.41 332.77 224.45 332.88 224.49C332.75 224.55 332.61 224.6 332.48 224.66C332.51 224.56 332.54 224.46 332.56 224.36ZM278.82 247.49C279.57 251.42 280.37 255.22 279.98 259.28C279.82 259.31 279.66 259.34 279.49 259.36C279.27 255.4 279.05 251.45 278.82 247.49ZM298.56 247.52C298.74 247.6 298.91 247.68 299.09 247.76C299.16 248.13 299.24 248.49 299.32 248.86C301.38 250.32 304.45 250.18 306.85 249.54C303.36 249.47 299.86 249.39 296.37 249.32C297.1 248.72 297.83 248.12 298.56 247.52ZM190.41 255.49C190.33 255.44 190.26 255.39 190.18 255.34C190 255.61 189.83 255.89 189.65 256.16C187.83 254.31 185.54 254.81 183.11 254.83C183.11 254.67 183.11 254.51 183.11 254.35C184.86 254.19 186.61 254.04 188.36 253.88C189.04 254.42 189.73 254.96 190.41 255.49ZM210.14 260.36C210.99 262.76 211.83 265.17 212.68 267.58C212.41 267.58 212.14 267.58 211.87 267.58C211.8 266.68 211.91 266.38 210.96 266.44C210.96 265.37 210.96 264.31 210.96 263.24C210.12 263.17 209.28 263.09 208.45 263.01C208.49 262.65 208.52 262.29 208.56 261.94C208.98 261.75 209.4 261.57 209.82 261.39C209.92 261.05 210.03 260.7 210.14 260.36ZM213.79 275.75C214.06 277.67 214.33 279.59 214.6 281.51C214.28 281.63 213.96 281.76 213.64 281.88C213.5 281.61 213.37 281.33 213.24 281.05C213.32 279.91 213.39 278.77 213.47 277.63C212.4 277.93 211.34 278.23 210.27 278.54C210.16 278.17 210.05 277.8 209.94 277.43C211.22 276.87 212.51 276.31 213.79 275.75ZM286.29 275.82C287.51 276.24 288.73 276.66 289.95 277.07C290.18 277.56 290.41 278.05 290.64 278.54C289.27 278.39 287.9 278.23 286.53 278.08C286.3 279.29 286.07 280.51 285.84 281.72C285.67 281.65 285.5 281.58 285.33 281.51C285.65 279.61 285.97 277.72 286.29 275.82ZM311.83 284.6C307.56 286.05 300.97 286.86 296.73 285.08C301.76 284.92 306.8 284.76 311.83 284.6ZM226.97 333.78C226.96 333.94 226.95 334.09 226.94 334.25C226.95 334.09 226.96 333.94 226.97 333.78ZM226.07 334.23C226.36 334.23 226.65 334.24 226.94 334.25C226.94 334.35 226.94 334.46 226.94 334.57C226.65 334.46 226.36 334.34 226.07 334.23ZM231.05 376.83C228.62 378.3 226.18 379.76 223.74 381.23C223.82 380.94 223.9 380.65 223.97 380.37C226.33 379.19 228.69 378.01 231.05 376.83Z" fill="#265795" fill-rule="evenodd" stroke="#265795" stroke-width="0.25" stroke-linejoin="round"/>
</svg>